<?xml version="1.0" ?><svg enable-background="new 0 0 24 24" id="Layer_1" version="1.1" viewBox="0 0 24 24" xml:space="preserve" xmlns="http://www.w3.org/2000/svg" xmlns:xlink="http://www.w3.org/1999/xlink"><path d="M20,13.1123047C20,8.7392578,16.5410156,0,12,0S4,8.7392578,4,13.1123047  c0,2.9117432,1.612915,5.4539185,4,6.8203735v1.7069702l-1.1582031,0.3862305  c-0.2617188,0.0869141-0.4033203,0.3701172-0.3164063,0.6323242C6.5957031,22.8676758,6.7910156,23,7,23  c0.0527344,0,0.1054688-0.0083008,0.1582031-0.0258789L8,22.6935425V23.5C8,23.7763672,8.2236328,24,8.5,24S9,23.7763672,9,23.5  v-0.8061523l0.8417969,0.2802734c0.2626953,0.0883789,0.5449219-0.0532227,0.6328125-0.315918  c0.0869141-0.262207-0.0546875-0.5454102-0.3164063-0.6323242L9,21.6398315v-1.2205811C9.9274292,20.7908325,10.9388428,21,12,21  s2.0725708-0.2091675,3-0.5807495v1.2203979l-1.1582031,0.3862305c-0.2617188,0.0869141-0.4033203,0.3701172-0.3164063,0.6323242  C13.5957031,22.8676758,13.7910156,23,14,23c0.0527344,0,0.1054688-0.0083008,0.1582031-0.0258789L15,22.6935425V23.5  c0,0.2763672,0.2236328,0.5,0.5,0.5s0.5-0.2236328,0.5-0.5v-0.8061523l0.8417969,0.2802734  c0.2636719,0.0883789,0.5449219-0.0532227,0.6328125-0.315918c0.0869141-0.262207-0.0546875-0.5454102-0.3164063-0.6323242  L16,21.6398315v-1.7071533C18.387085,18.5662231,20,16.0240479,20,13.1123047z M6,13.1123047  C6,9.3399658,8.6741333,3.4535522,11.1328735,2.237915l0.1620483,0.0540771l-0.7421875,1.484375  c-0.0625,0.125-0.0693359,0.2705078-0.0205078,0.4013672c0.0498047,0.1308594,0.1523438,0.234375,0.2822266,0.2866211  l1.6738281,0.6694336l-1.2880859,0.9663086c-0.2197266,0.1640625-0.265625,0.4746094-0.1035156,0.6953125l0.9560547,1.3041992  c0.0976563,0.1337891,0.25,0.2045898,0.4033203,0.2045898c0.1025391,0,0.2060547-0.03125,0.2958984-0.0966797  c0.2226563-0.1630859,0.2705078-0.4760742,0.1074219-0.6987305l-0.6640625-0.9057617l1.6044922-1.203125  c0.1445313-0.1083984,0.2197266-0.2861328,0.1962891-0.465332c-0.0244141-0.1791992-0.1425781-0.331543-0.3105469-0.3989258  L11.6904297,3.737793l0.7568359-1.5141602c0.0231934-0.0466919,0.0297852-0.0977173,0.0376587-0.1481323  C15.0397339,2.8220215,18,9.1436768,18,13.1123047C18,16.3588867,15.3085938,19,12,19S6,16.3588867,6,13.1123047z" fill="#303C42"/><g/><g/><g/><g/><g/><g/><g/><g/><g/><g/><g/><g/><g/><g/><g/></svg>