<?xml version="1.0" ?><svg enable-background="new 0 0 24 24" id="Layer_1" version="1.1" viewBox="0 0 24 24" xml:space="preserve" xmlns="http://www.w3.org/2000/svg" xmlns:xlink="http://www.w3.org/1999/xlink"><g><ellipse cx="10" cy="7.25" fill="#303C42" rx="0.5" ry="0.75"/><path d="M24,4.5c0-0.2021484-0.1220703-0.3842773-0.3085938-0.4619141   c-0.1855469-0.0776367-0.4013672-0.034668-0.5449219,0.1083984c-0.4296875,0.4296875-1.4423828,0.7983398-2.5136719,1.1879883   c-0.7275391,0.2645264-1.4619751,0.5519409-2.1574097,0.8827515C17.0853882,2.9786377,14.8314209,0,12,0   C9.1706543,0,6.9179688,2.9744263,5.5275269,6.2185669C4.8312378,5.887146,4.0957031,5.5993652,3.3671875,5.3344727   C2.2958984,4.9448242,1.2832031,4.5761719,0.8535156,4.1464844C0.7109375,4.003418,0.4951172,3.9609375,0.3085938,4.0380859   C0.1220703,4.1157227,0,4.2978516,0,4.5c0.0009155,2.180542,1.6726074,6.3879395,4.0111084,8.0130615   c0.0082397,0.2406006,0.0230103,0.5499268,0.048645,0.897583l-0.7492065,0.3745117   c-0.1582031,0.0795898-0.2636719,0.2368164-0.2753906,0.4140625C3.0166016,14.4746094,3,14.7490234,3,15.0043945   C3,19.9643555,7.0371094,24,12,24s9-4.0356445,9-8.9956055c0-0.6845703-0.0751953-1.4824219-0.2226563-2.3710938   c-0.0302734-0.1845703-0.1621094-0.3369141-0.3408203-0.394043c-0.0272827-0.0088501-0.0549316,0.0008545-0.0827026-0.0031128   C22.4992065,10.4498291,23.9990845,6.5653076,24,4.5z M14,5.5c0.5605469,0,1,0.5488281,1,1.25S14.5605469,8,14,8   s-1-0.5488281-1-1.25S13.4394531,5.5,14,5.5z M12,9.2929688l0.6464844-0.6464844   c0.1953125-0.1953125,0.5117188-0.1953125,0.7070313,0s0.1953125,0.5117188,0,0.7070313l-1,1   C12.2558594,10.4511719,12.1279297,10.5,12,10.5s-0.2558594-0.0488281-0.3535156-0.1464844l-1-1   c-0.1953125-0.1953125-0.1953125-0.5117188,0-0.7070313s0.5117188-0.1953125,0.7070313,0L12,9.2929688z M10,5.5   c0.5605469,0,1,0.5488281,1,1.25S10.5605469,8,10,8S9,7.4511719,9,6.75S9.4394531,5.5,10,5.5z M12,22   c-3.8027344,0-6.90625-3.0458984-6.9980469-6.8242188l1.3271484-0.6635742l0.8291016,1.6582031   c0.203125,0.4077148,0.5751953,0.6972656,1.0195313,0.7944336c0.4404297,0.0961914,0.9082031-0.0141602,1.2597532-0.293457   l3.9511843-3.1616211l3.0507813,3.0507813c0.5664063,0.5664063,1.5546875,0.5664063,2.1210938,0l0.3320313-0.3320313   C18.3115234,19.5043945,15.4423828,22,12,22z" fill="#303C42"/><ellipse cx="14" cy="7.25" fill="#303C42" rx="0.5" ry="0.75"/></g><g/><g/><g/><g/><g/><g/><g/><g/><g/><g/><g/><g/><g/><g/><g/></svg>